<?xml version="1.0" encoding="UTF-8" standalone="no"?>
<svg
   xmlns:dc="http://purl.org/dc/elements/1.1/"
   xmlns:cc="http://creativecommons.org/ns#"
   xmlns:rdf="http://www.w3.org/1999/02/22-rdf-syntax-ns#"
   xmlns:svg="http://www.w3.org/2000/svg"
   xmlns="http://www.w3.org/2000/svg"
   id="svg8"
   version="1.1"
   viewBox="0 0 34.186371 15.593909"
   height="15.593909mm"
   width="34.186371mm">
  <defs
     id="defs2" />
  <metadata
     id="metadata5">
    <rdf:RDF>
      <cc:Work
         rdf:about="">
        <dc:format>image/svg+xml</dc:format>
        <dc:type
           rdf:resource="http://purl.org/dc/dcmitype/StillImage" />
        <dc:title></dc:title>
      </cc:Work>
    </rdf:RDF>
  </metadata>
  <g
     transform="translate(-94.784417,-136.51463)"
     id="layer1">
    <path
       id="path4509"
       d="m 115.68052,151.63364 c -0.3413,-0.2713 -0.5825,-0.72169 -0.5825,-1.08766 0,-0.52423 0.30925,-0.82763 1.92407,-1.88771 1.05825,-0.6947 2.4145,-1.59846 3.0139,-2.00834 l 1.08984,-0.74524 -12.53665,-0.005 -12.536614,-0.005 -0.657587,-0.49108 c -1.02174,-0.763 -0.718187,-2.04266 0.590149,-2.48783 0.447178,-0.15216 4.467252,-0.22317 12.762812,-0.22545 l 12.10998,-0.004 -2.87995,-2.01474 c -2.51314,-1.75811 -2.87995,-2.09726 -2.87995,-2.66265 0,-1.35614 2.09992,-1.97158 3.64342,-1.0678 2.35536,1.37919 9.67363,6.47482 9.99265,6.95778 0.29892,0.45255 0.31069,0.6833 0.0581,1.13866 -0.27882,0.50269 -4.11321,3.04777 -9.20244,6.10812 -1.8405,1.10677 -2.95514,1.24571 -3.90925,0.48727 z"
       style="fill:#03c1c1;fill-opacity:1;stroke-width:0.99999994" />
  </g>
</svg>
