<?xml version="1.0" encoding="UTF-8" standalone="no"?>
<svg
   xmlns:dc="http://purl.org/dc/elements/1.1/"
   xmlns:cc="http://creativecommons.org/ns#"
   xmlns:rdf="http://www.w3.org/1999/02/22-rdf-syntax-ns#"
   xmlns:svg="http://www.w3.org/2000/svg"
   xmlns="http://www.w3.org/2000/svg"
   viewBox="0 0 79.191589 79.992989"
   height="79.992989"
   width="79.191589"
   id="svg2"
   version="1.1">
  <metadata
     id="metadata8">
    <rdf:RDF>
      <cc:Work
         rdf:about="">
        <dc:format>image/svg+xml</dc:format>
        <dc:type
           rdf:resource="http://purl.org/dc/dcmitype/StillImage" />
        <dc:title></dc:title>
      </cc:Work>
    </rdf:RDF>
  </metadata>
  <defs
     id="defs6" />
  <path
     id="path4487"
     d="m 30.419036,78.842514 c -8.474574,-2.3401 -17.8363,-8.0959 -21.9587834,-13.50076 C 3.7654552e-5,54.249844 -2.3557624,38.608214 2.4861656,25.676056 6.2792406,15.545246 11.937935,9.4045555 22.082745,4.4102823 c 11.028801,-5.429462 22.506657,-5.853836 33.228917,-1.228584 25.67326,11.0746407 32.10006,45.6250157 12.1241,65.1789757 -9.83668,9.62888 -24.78089,13.86055 -37.016726,10.48184 z m 22.846866,-12.54981 c 21.77569,-11.04218 21.77569,-41.624485 0,-52.666666 C 40.602476,7.2045723 28.126153,9.1689333 18.488067,19.101706 6.4129476,31.546025 6.1351636,47.459934 17.77091,60.186824 c 9.41154,10.29411 22.720703,12.58357 35.494992,6.10588 z M 33.179904,39.959374 c 0,-8.433336 0.396586,-15.333336 0.881304,-15.333336 1.100693,0 20.452034,14.508116 20.452034,15.333336 0,0.82521 -19.351341,15.33333 -20.452034,15.33333 -0.484718,0 -0.881304,-6.9 -0.881304,-15.33333 z"
     style="fill:#353535;stroke-width:1" />
</svg>
