<?xml version="1.0" encoding="UTF-8"?><!DOCTYPE svg PUBLIC "-//W3C//DTD SVG 1.1//EN" "http://www.w3.org/Graphics/SVG/1.1/DTD/svg11.dtd"><svg xmlns="http://www.w3.org/2000/svg"><symbol id="icon-arrow2" viewBox="0 0 34.186371 15.593909">
    <path d="M20.896 15.119c-.341-.271-.582-.722-.582-1.088 0-.524.309-.827 1.924-1.887a247.796 247.796 0 0 0 3.014-2.009l1.09-.745-12.537-.005L1.268 9.38.611 8.89c-1.022-.763-.719-2.043.59-2.488.447-.152 4.467-.223 12.763-.225l12.11-.004-2.88-2.015c-2.514-1.758-2.88-2.097-2.88-2.663 0-1.356 2.1-1.971 3.643-1.067 2.355 1.379 9.674 6.474 9.993 6.957.299.453.31.684.058 1.139-.279.503-4.113 3.048-9.203 6.108-1.84 1.107-2.955 1.246-3.909.487z"/>
</symbol><symbol id="icon-facebook-1" viewBox="0 0 96.124 96.123">
    <path d="M72.089.02L59.624 0C45.62 0 36.57 9.285 36.57 23.656v10.907H24.037a1.96 1.96 0 0 0-1.96 1.961v15.803a1.96 1.96 0 0 0 1.96 1.96H36.57v39.876a1.96 1.96 0 0 0 1.96 1.96h16.352a1.96 1.96 0 0 0 1.96-1.96V54.287h14.654a1.96 1.96 0 0 0 1.96-1.96l.006-15.803a1.963 1.963 0 0 0-1.961-1.961H56.842v-9.246c0-4.444 1.059-6.7 6.848-6.7l8.397-.003a1.96 1.96 0 0 0 1.959-1.96V1.98A1.96 1.96 0 0 0 72.089.02z"/>
</symbol><symbol id="icon-facebook" viewBox="0 0 10 19">
    <title>
        facebook
    </title>
    <path d="M9.766.157v2.946H8.014c-.64 0-1.071.134-1.295.402-.223.268-.335.67-.335 1.205v2.11h3.27l-.435 3.303H6.384v8.471H2.97v-8.47H.123V6.82H2.97V4.387c0-1.384.387-2.457 1.161-3.22C4.904.404 5.934.023 7.222.023c1.093 0 1.941.045 2.544.134z" fill-rule="evenodd"/>
</symbol><symbol id="icon-odno" viewBox="0 0 95.481 95.481">
    <g>
        <path d="M43.041 67.254c-7.402-.772-14.076-2.595-19.79-7.064-.709-.556-1.441-1.092-2.088-1.713-2.501-2.402-2.753-5.153-.774-7.988 1.693-2.426 4.535-3.075 7.489-1.682.572.27 1.117.607 1.639.969 10.649 7.317 25.278 7.519 35.967.329 1.059-.812 2.191-1.474 3.503-1.812 2.551-.655 4.93.282 6.299 2.514 1.564 2.549 1.544 5.037-.383 7.016-2.956 3.034-6.511 5.229-10.461 6.761-3.735 1.448-7.826 2.177-11.875 2.661.611.665.899.992 1.281 1.376 5.498 5.524 11.02 11.025 16.5 16.566 1.867 1.888 2.257 4.229 1.229 6.425-1.124 2.4-3.64 3.979-6.107 3.81-1.563-.108-2.782-.886-3.865-1.977-4.149-4.175-8.376-8.273-12.441-12.527-1.183-1.237-1.752-1.003-2.796.071-4.174 4.297-8.416 8.528-12.683 12.735-1.916 1.889-4.196 2.229-6.418 1.15-2.362-1.145-3.865-3.556-3.749-5.979.08-1.639.886-2.891 2.011-4.014 5.441-5.433 10.867-10.88 16.295-16.322.359-.362.694-.746 1.217-1.305z"/>
        <path d="M47.55 48.329c-13.205-.045-24.033-10.992-23.956-24.218C23.67 10.739 34.505-.037 47.84 0c13.362.036 24.087 10.967 24.02 24.478-.068 13.199-10.971 23.897-24.31 23.851zm12.001-24.186c-.023-6.567-5.253-11.795-11.807-11.801-6.609-.007-11.886 5.316-11.835 11.943.049 6.542 5.324 11.733 11.896 11.709 6.552-.023 11.768-5.285 11.746-11.851z"/>
    </g>
</symbol><symbol id="icon-play" viewBox="0 0 79.191589 79.992989">
    <path d="M30.419 78.843c-8.475-2.34-17.836-8.096-21.959-13.501C0 54.25-2.356 38.608 2.486 25.676 6.28 15.546 11.938 9.405 22.083 4.41c11.029-5.43 22.506-5.854 33.229-1.228 25.673 11.074 32.1 45.625 12.124 65.179-9.837 9.629-24.781 13.86-37.017 10.482zm22.847-12.55c21.776-11.042 21.776-41.625 0-52.667-12.664-6.421-25.14-4.457-34.778 5.476C6.413 31.546 6.135 47.46 17.771 60.187c9.411 10.294 22.72 12.583 35.495 6.106zM33.18 39.959c0-8.433.396-15.333.881-15.333 1.1 0 20.452 14.508 20.452 15.333 0 .826-19.351 15.334-20.452 15.334-.485 0-.881-6.9-.881-15.334z"/>
</symbol><symbol id="icon-twitter" viewBox="0 0 612 612">
    <path d="M612 116.258a250.714 250.714 0 0 1-72.088 19.772c25.929-15.527 45.777-40.155 55.184-69.411-24.322 14.379-51.169 24.82-79.775 30.48-22.907-24.437-55.49-39.658-91.63-39.658-69.334 0-125.551 56.217-125.551 125.513 0 9.828 1.109 19.427 3.251 28.606-104.326-5.24-196.835-55.223-258.75-131.174-10.823 18.51-16.98 40.078-16.98 63.101 0 43.559 22.181 81.993 55.835 104.479a125.556 125.556 0 0 1-56.867-15.756v1.568c0 60.806 43.291 111.554 100.693 123.104-10.517 2.83-21.607 4.398-33.08 4.398-8.107 0-15.947-.803-23.634-2.333 15.985 49.907 62.336 86.199 117.253 87.194-42.947 33.654-97.099 53.655-155.916 53.655-10.134 0-20.116-.612-29.944-1.721 55.567 35.681 121.536 56.485 192.438 56.485 230.948 0 357.188-191.291 357.188-357.188l-.421-16.253c24.666-17.593 46.005-39.697 62.794-64.861z"/>
</symbol><symbol id="icon-vk" viewBox="0 0 304.36 304.36">
    <path d="M261.945 175.576c10.096 9.857 20.752 19.131 29.807 29.982 4 4.822 7.787 9.798 10.684 15.394 4.105 7.955.387 16.709-6.746 17.184l-44.34-.02c-11.436.949-20.559-3.655-28.23-11.474-6.139-6.253-11.824-12.908-17.727-19.372-2.42-2.642-4.953-5.128-7.979-7.093-6.053-3.929-11.307-2.726-14.766 3.587-3.523 6.421-4.322 13.531-4.668 20.687-.475 10.441-3.631 13.186-14.119 13.664-22.414 1.057-43.686-2.334-63.447-13.641-17.422-9.968-30.932-24.04-42.691-39.971-22.895-31.021-40.428-65.108-56.186-100.15C-2.01 76.458.584 72.22 9.295 72.07c14.465-.281 28.928-.261 43.41-.02 5.879.086 9.771 3.458 12.041 9.012 7.826 19.243 17.402 37.551 29.422 54.521 3.201 4.518 6.465 9.036 11.113 12.216 5.142 3.521 9.057 2.354 11.476-3.374 1.535-3.632 2.207-7.544 2.553-11.434 1.146-13.383 1.297-26.743-.713-40.079-1.234-8.323-5.922-13.711-14.227-15.286-4.238-.803-3.607-2.38-1.555-4.799 3.564-4.172 6.916-6.769 13.598-6.769h50.111c7.889 1.557 9.641 5.101 10.721 13.039l.043 55.663c-.086 3.073 1.535 12.192 7.07 14.226 4.43 1.448 7.35-2.096 10.008-4.905 11.998-12.734 20.561-27.783 28.211-43.366 3.395-6.852 6.314-13.968 9.143-21.078 2.096-5.276 5.385-7.872 11.328-7.757l48.229.043c1.43 0 2.877.021 4.262.258 8.127 1.385 10.354 4.881 7.844 12.817-3.955 12.451-11.65 22.827-19.174 33.251-8.043 11.129-16.645 21.877-24.621 33.072-7.328 10.223-6.746 15.376 2.357 24.255zm0 0" fill-rule="evenodd" clip-rule="evenodd"/>
</symbol></svg>